<svg xmlns="http://www.w3.org/2000/svg" version="1.1" style="font-family:Lato, &#x27;Helvetica Neue&#x27;, Helvetica, Arial, sans-serif;font-size:18px;background-color:white;text-rendering:optimizeLegibility;-webkit-font-smoothing:antialiased" width="850" height="600"><g class="HeaderView"><g transform="translate(774, 15) scale(0.29)"><svg width="210" height="120" viewBox="0 0 210 120" fill="none" xmlns="http://www.w3.org/2000/svg"><defs>
        <clipPath id="clip0">
            <rect width="210" height="120" fill="white"/>
        </clipPath>
    </defs>
</svg></g><a href="https://ourworldindata.org/grapher/us-healthcare-expenditure" target="_blank"><text font-size="25.20" x="15.0" y="35.2" fill="#555"><tspan x="15" y="35.160000000000004">US Healthcare Expenditure</tspan></text></a><text font-size="14.40" x="15.0" y="53.7" fill="#666"><tspan x="15" y="53.72">National Health Expenditures (Percent of GDP)</tspan></text></g><g class="StackedArea"><defs><clipPath id="boundsClip-2219"><rect x="52.562" y="0" width="820" height="963.8"></rect></clipPath></defs><g class="AxisBoxView"><g class="HorizontalAxis"><text x="52.6" y="556.5" fill="#666" text-anchor="middle" font-size="16.2">1929</text><text x="140.5" y="556.5" fill="#666" text-anchor="middle" font-size="16.2">1940</text><text x="220.4" y="556.5" fill="#666" text-anchor="middle" font-size="16.2">1950</text><text x="300.3" y="556.5" fill="#666" text-anchor="middle" font-size="16.2">1960</text><text x="380.2" y="556.5" fill="#666" text-anchor="middle" font-size="16.2">1970</text><text x="460.1" y="556.5" fill="#666" text-anchor="middle" font-size="16.2">1980</text><text x="540.1" y="556.5" fill="#666" text-anchor="middle" font-size="16.2">1990</text><text x="620" y="556.5" fill="#666" text-anchor="middle" font-size="16.2">2000</text><text x="723.9" y="556.5" fill="#666" text-anchor="middle" font-size="16.2">2013</text></g><g class="VerticalAxis"><text x="47.56" y="535.3" fill="#666" dominant-baseline="middle" text-anchor="end" font-size="16.2">0%</text><text x="47.56" y="481.4" fill="#666" dominant-baseline="middle" text-anchor="end" font-size="16.2">2%</text><text x="47.56" y="427.5" fill="#666" dominant-baseline="middle" text-anchor="end" font-size="16.2">4%</text><text x="47.56" y="373.6" fill="#666" dominant-baseline="middle" text-anchor="end" font-size="16.2">6%</text><text x="47.56" y="319.7" fill="#666" dominant-baseline="middle" text-anchor="end" font-size="16.2">8%</text><text x="47.56" y="265.8" fill="#666" dominant-baseline="middle" text-anchor="end" font-size="16.2">10%</text><text x="47.56" y="212" fill="#666" dominant-baseline="middle" text-anchor="end" font-size="16.2">12%</text><text x="47.56" y="158.1" fill="#666" dominant-baseline="middle" text-anchor="end" font-size="16.2">14%</text><text x="47.56" y="104.2" fill="#666" dominant-baseline="middle" text-anchor="end" font-size="16.2">16%</text></g><g class="AxisGridLines"><line x1="52.56" y1="535.3" x2="723.86" y2="535.3" stroke="#ccc"></line><line x1="52.56" y1="481.4" x2="723.86" y2="481.4" stroke="#ddd" stroke-dasharray="3,2"></line><line x1="52.56" y1="427.5" x2="723.86" y2="427.5" stroke="#ddd" stroke-dasharray="3,2"></line><line x1="52.56" y1="373.6" x2="723.86" y2="373.6" stroke="#ddd" stroke-dasharray="3,2"></line><line x1="52.56" y1="319.7" x2="723.86" y2="319.7" stroke="#ddd" stroke-dasharray="3,2"></line><line x1="52.56" y1="265.8" x2="723.86" y2="265.8" stroke="#ddd" stroke-dasharray="3,2"></line><line x1="52.56" y1="212" x2="723.86" y2="212" stroke="#ddd" stroke-dasharray="3,2"></line><line x1="52.56" y1="158.1" x2="723.86" y2="158.1" stroke="#ddd" stroke-dasharray="3,2"></line><line x1="52.56" y1="104.2" x2="723.86" y2="104.2" stroke="#ddd" stroke-dasharray="3,2"></line></g></g><g clip-path="url(#boundsClip-2219)"><g class="HeightedLegend"><g class="legendMark"><rect x="723.86" y="175.15" width="111.14" height="42.7" fill="#fff" opacity="0"></rect><text font-size="13.50" x="728.9" y="186.0" fill="#34983f"><tspan x="728.86" y="185.95000000000002">US Health</tspan><tspan x="728.86" y="200.8">Expenditure,</tspan><tspan x="728.86" y="215.65000000000003">Private</tspan></text></g><g class="legendMark"><rect x="723.86" y="405.45" width="111.14" height="42.7" fill="#fff" opacity="0"></rect><text font-size="13.50" x="728.9" y="416.3" fill="#3360a9"><tspan x="728.86" y="416.25">US Health</tspan><tspan x="728.86" y="431.1">Expenditure,</tspan><tspan x="728.86" y="445.95">Public</tspan></text></g></g><g class="Areas"><rect x="52.562" y="74.6" width="671.298" height="460.69999999999993" opacity="0" fill="rgba(255,255,255,0)"></rect><path class="United-States_1-area" stroke-linecap="round" d="M52.6 522.5L100.5 514.6L140.5 513.4L204.4 510.3L220.4 502.4L260.3 504.9L300.3 500.1L340.3 495.7L380.2 462.2L460.1 431.8L500.1 417.4L532.1 404.3L580 375.4L620 382.8L659.9 354L699.9 317L723.9 318.4L723.86 535.3L52.562 535.3" fill="#3360a9" fill-opacity="0.7"></path><path class="United-States_0-area" stroke-linecap="round" d="M52.6 441L100.5 427.5L140.5 427.5L204.4 424.8L220.4 414L260.3 416.7L300.3 392.5L340.3 376.3L380.2 338.8L460.1 290.1L500.1 252.4L532.1 222.9L580 180.6L620 181.1L659.9 124.9L699.9 75L723.9 74.6L723.9 318.4L699.9 317L659.9 354L620 382.8L580 375.4L532.1 404.3L500.1 417.4L460.1 431.8L380.2 462.2L340.3 495.7L300.3 500.1L260.3 504.9L220.4 502.4L204.4 510.3L140.5 513.4L100.5 514.6L52.6 522.5" fill="#34983f" fill-opacity="0.7"></path><path class="United-States_1-border" stroke-linecap="round" d="M52.6 522.5L100.5 514.6L140.5 513.4L204.4 510.3L220.4 502.4L260.3 504.9L300.3 500.1L340.3 495.7L380.2 462.2L460.1 431.8L500.1 417.4L532.1 404.3L580 375.4L620 382.8L659.9 354L699.9 317L723.9 318.4" stroke="rgb(43, 80, 141)" stroke-opacity="0.7" stroke-width="0.5" fill="none"></path><path class="United-States_0-border" stroke-linecap="round" d="M52.6 441L100.5 427.5L140.5 427.5L204.4 424.8L220.4 414L260.3 416.7L300.3 392.5L340.3 376.3L380.2 338.8L460.1 290.1L500.1 252.4L532.1 222.9L580 180.6L620 181.1L659.9 124.9L699.9 75L723.9 74.6" stroke="rgb(44, 127, 53)" stroke-opacity="0.7" stroke-width="0.5" fill="none"></path></g></g></g><g class="SourcesFooter" style="fill:#777"><g class="clickable" style="fill:#777"><text font-size="12.60" x="15.0" y="581.6"><tspan x="15" y="581.58">Source: US Census and WDI (2013)</tspan></text></g><text font-size="12.60" x="549.1" y="581.6"><tspan x="549.106" y="581.58"><a target='_blank' style='fill: #777;' href='https://ourworldindata.org/financing-healthcare/'>OurWorldInData.org/financing-healthcare/</a> • <a style="fill: #777;" class="cclogo" href="http://creativecommons.org/licenses/by/4.0/deed.en_US" target="_blank">CC BY</a></tspan></text></g></svg>